<?xml version="1.0" standalone="no"?>
<!DOCTYPE svg PUBLIC "-//W3C//DTD SVG 20010904//EN"
 "http://www.w3.org/TR/2001/REC-SVG-20010904/DTD/svg10.dtd">
<svg version="1.0" xmlns="http://www.w3.org/2000/svg"
 width="1467.000000pt" height="1467.000000pt" viewBox="0 0 1467.000000 1467.000000"
 preserveAspectRatio="xMidYMid meet">
<metadata>
Created by potrace 1.11, written by Peter Selinger 2001-2013
</metadata>
<g transform="translate(0.000000,1467.000000) scale(0.100000,-0.100000)"
fill="#000000" stroke="none">
<path d="M11205 11935 c-27 -47 -53 -85 -57 -85 -4 0 -7 -3 -6 -7 1 -5 -10
-27 -25 -50 -15 -24 -27 -45 -27 -47 0 -4 -29 -50 -88 -141 -7 -11 -15 -28
-18 -37 -4 -10 -10 -18 -14 -18 -5 0 -12 -10 -16 -22 -3 -12 -11 -26 -16 -32
-11 -13 -52 -79 -53 -86 0 -3 -22 -37 -48 -77 -26 -40 -47 -75 -47 -78 0 -9
-54 -90 -62 -93 -5 -2 -8 -9 -8 -16 0 -10 63 -13 294 -13 l295 -1 64 72 c36
39 80 87 98 107 19 20 67 72 107 117 40 44 88 96 105 115 18 18 70 76 117 127
47 51 104 113 128 138 23 24 42 49 42 54 0 5 5 6 10 3 6 -3 10 -2 10 2 0 5 15
25 33 45 17 19 47 52 65 72 l32 36 -432 0 -433 0 -50 -85z"/>
<path d="M2465 11438 c-215 -74 -329 -172 -445 -383 -18 -33 -97 -172 -175
-310 -170 -300 -260 -459 -305 -540 -18 -33 -39 -70 -47 -82 l-14 -22 -50 30
c-28 16 -52 29 -55 29 -3 0 -18 8 -32 18 -70 49 -139 78 -188 81 -95 4 -184
-82 -185 -180 -1 -24 18 -111 40 -194 23 -82 43 -157 45 -165 2 -8 6 -22 9
-30 5 -14 17 -59 23 -87 1 -6 7 -27 13 -45 25 -79 26 -77 -98 -290 -64 -112
-120 -210 -124 -218 -4 -8 -20 -36 -35 -61 -23 -39 -296 -512 -327 -566 -40
-72 -92 -161 -102 -178 -7 -11 -16 -27 -20 -35 -4 -8 -26 -48 -50 -88 -24 -40
-43 -75 -43 -79 0 -4 -6 -14 -14 -22 -7 -9 -26 -41 -42 -71 -16 -30 -31 -57
-35 -60 -3 -3 -22 -35 -42 -71 -113 -205 -127 -254 -123 -424 1 -71 6 -143 10
-159 12 -48 54 -145 86 -197 16 -27 30 -54 30 -59 0 -6 5 -10 10 -10 6 0 10
-4 10 -10 0 -7 179 -323 290 -510 32 -56 222 -382 238 -410 11 -19 40 -70 66
-113 25 -43 46 -80 46 -83 0 -3 15 -28 33 -57 19 -29 46 -75 62 -102 41 -75
209 -365 286 -495 89 -151 149 -212 262 -264 85 -39 134 -42 807 -41 l650 0 0
-154 c0 -137 2 -160 21 -199 41 -84 159 -127 242 -87 20 9 131 112 247 228
l211 211 1037 1 c570 1 1057 5 1082 10 25 5 47 9 50 10 29 6 98 34 155 64 124
64 218 170 328 371 17 30 38 67 49 82 10 14 18 29 18 33 0 3 16 31 35 61 19
30 35 57 35 60 0 4 62 113 129 224 11 19 24 41 27 48 7 15 30 55 397 694 141
246 266 463 277 482 11 20 29 52 40 72 89 156 102 409 29 573 -15 36 -184 338
-230 411 -5 8 -59 103 -120 210 -62 107 -136 237 -165 289 -30 51 -54 97 -54
101 0 5 -4 10 -10 12 -5 2 -16 19 -24 38 l-15 36 132 75 c155 89 187 124 189
204 1 63 -5 87 -33 126 -22 31 -99 74 -149 82 -14 3 -59 14 -100 26 -41 12
-102 29 -135 37 -33 9 -89 25 -125 35 -36 10 -83 23 -105 29 -40 10 -41 12
-240 360 -110 192 -207 362 -215 377 -8 15 -36 63 -62 106 -27 43 -48 81 -48
83 0 2 -18 34 -40 70 -22 36 -40 68 -40 69 0 2 -53 96 -118 208 -66 113 -122
211 -126 218 -4 8 -12 23 -19 34 -7 11 -36 63 -66 115 -30 52 -71 120 -92 150
-89 132 -245 238 -394 271 -59 12 -2433 9 -2470 -3z m1300 -920 c26 -45 56
-98 67 -117 11 -20 62 -108 113 -196 50 -88 103 -180 117 -205 25 -43 137
-236 200 -345 16 -27 34 -61 41 -75 6 -14 14 -27 17 -30 5 -5 11 -16 52 -89
11 -20 44 -76 73 -126 29 -49 63 -110 77 -135 14 -25 81 -142 150 -260 68
-118 129 -224 135 -235 7 -11 28 -48 48 -83 l37 -62 -20 -78 c-11 -42 -45
-170 -76 -285 -31 -114 -56 -226 -56 -250 0 -55 34 -113 88 -152 37 -25 52
-30 100 -29 52 1 69 8 191 78 103 60 136 74 143 64 7 -11 30 -50 88 -148 5 -8
25 -42 43 -75 19 -33 76 -132 127 -220 51 -88 106 -185 123 -215 17 -30 48
-84 69 -119 21 -34 38 -64 38 -66 0 -1 29 -52 64 -113 36 -61 76 -131 89 -154
13 -24 34 -59 45 -78 12 -19 26 -44 32 -55 6 -11 19 -33 29 -50 11 -16 20 -33
20 -37 1 -5 -532 -8 -1184 -8 l-1184 0 -219 218 c-233 232 -247 242 -336 236
-56 -3 -99 -26 -140 -77 l-31 -39 -3 -169 -4 -169 -770 0 c-733 0 -770 1 -756
18 8 9 41 64 74 122 32 58 62 107 66 108 4 2 8 8 8 13 0 7 411 731 460 809 5
8 37 65 72 125 34 61 67 118 73 127 5 9 17 29 26 45 8 15 78 136 154 268 76
132 148 256 159 276 12 20 33 58 49 84 15 26 27 51 27 56 0 4 17 11 38 15 20
4 42 9 47 13 6 3 15 6 20 7 10 2 211 55 285 75 46 12 72 19 90 24 8 2 16 4 18
4 1 1 4 1 7 1 20 0 112 43 132 62 40 37 61 92 60 151 -3 86 -33 120 -192 211
l-134 77 22 37 c12 20 25 39 29 40 4 2 8 9 8 17 0 7 32 65 70 129 39 65 70
119 70 121 0 2 36 65 80 141 44 75 80 138 80 139 0 2 21 39 46 82 26 43 55 92
64 108 9 17 41 73 71 125 29 52 57 97 61 98 5 2 8 7 8 12 0 4 32 63 70 131 39
67 70 125 70 129 0 5 21 30 26 30 1 0 23 -37 49 -82z"/>
<path d="M7996 10831 c-1 -3 -1 -17 1 -31 5 -34 5 -41 0 -72 -2 -16 0 -28 5
-28 5 0 6 -6 2 -12 -11 -18 -12 -48 -2 -48 5 0 6 -5 2 -12 -9 -14 -12 -78 -4
-78 3 0 5 -13 5 -30 0 -16 -3 -30 -7 -30 -4 0 -4 -10 1 -22 5 -13 5 -32 1 -43
-4 -11 -3 -26 2 -32 6 -8 7 -13 1 -13 -9 0 -9 -57 0 -67 3 -3 2 -15 -3 -27 -4
-13 -4 -29 1 -39 6 -9 6 -17 2 -17 -4 0 -8 -22 -8 -50 0 -27 4 -50 9 -50 5 0
4 -6 -2 -13 -7 -8 -7 -18 -2 -27 5 -8 5 -21 1 -29 -8 -18 -7 -53 2 -68 3 -5 2
-15 -3 -23 -5 -8 -5 -21 0 -30 5 -9 5 -22 0 -30 -5 -8 -5 -21 0 -30 5 -9 5
-22 0 -30 -5 -8 -5 -21 0 -30 5 -9 5 -22 0 -30 -5 -9 -5 -19 2 -27 6 -7 6 -13
1 -13 -10 0 -10 -66 0 -76 4 -4 2 -13 -4 -20 -7 -8 -7 -14 1 -19 7 -4 7 -12 0
-25 -7 -13 -7 -21 0 -25 7 -4 7 -13 0 -24 -6 -12 -5 -22 1 -28 8 -8 7 -13 0
-17 -8 -5 -8 -13 -1 -27 8 -13 7 -19 0 -19 -8 0 -8 -6 0 -20 6 -11 7 -20 2
-20 -9 0 -8 -53 3 -69 3 -6 1 -11 -5 -11 -8 0 -8 -6 0 -20 7 -13 7 -20 1 -20
-7 0 -7 -9 -1 -26 6 -15 6 -23 1 -19 -6 3 -6 -6 -1 -25 5 -18 5 -30 0 -30 -6
0 -5 -11 0 -26 6 -14 7 -23 2 -21 -4 3 -7 -14 -7 -38 0 -24 3 -41 7 -38 5 2 4
-7 -2 -21 -6 -17 -6 -26 1 -26 6 0 6 -7 -1 -20 -7 -13 -7 -20 -1 -20 7 0 7 -9
1 -25 -5 -14 -6 -25 -2 -25 9 0 7 -53 -3 -69 -3 -6 -1 -11 5 -11 8 0 8 -6 0
-20 -8 -14 -8 -20 0 -20 8 0 8 -6 0 -20 -8 -14 -8 -20 0 -20 8 0 8 -6 0 -20
-8 -14 -8 -20 0 -20 8 0 8 -6 0 -20 -8 -14 -8 -20 0 -20 8 0 8 -6 0 -20 -8
-14 -8 -20 0 -20 7 0 8 -6 0 -19 -7 -14 -7 -22 0 -26 6 -4 7 -11 3 -18 -8 -13
-9 -58 -1 -78 3 -9 2 -22 -2 -29 -5 -8 -4 -22 1 -32 7 -13 6 -18 -2 -18 -8 0
-9 -4 0 -13 8 -10 7 -17 -1 -25 -7 -7 -8 -12 -2 -12 5 0 10 -9 10 -20 0 -11
-4 -20 -9 -20 -5 0 -5 -6 1 -13 7 -8 7 -18 2 -27 -5 -8 -5 -21 0 -30 5 -9 5
-22 0 -30 -5 -8 -4 -22 1 -32 7 -13 6 -18 -2 -18 -8 0 -9 -4 0 -13 8 -10 7
-17 -1 -25 -7 -7 -8 -12 -2 -12 5 0 10 -9 10 -20 0 -11 -4 -20 -9 -20 -5 0 -5
-6 1 -13 7 -8 7 -18 2 -27 -5 -8 -5 -21 0 -30 5 -9 5 -22 0 -30 -5 -8 -6 -18
-3 -23 9 -15 10 -68 1 -73 -5 -3 -4 -12 2 -19 8 -10 8 -15 0 -20 -8 -5 -8 -10
0 -20 8 -10 8 -15 0 -20 -8 -5 -8 -10 0 -20 8 -10 8 -15 0 -20 -8 -5 -8 -10 0
-20 8 -10 8 -15 0 -20 -8 -5 -8 -10 0 -20 8 -10 8 -15 0 -20 -8 -5 -8 -10 0
-20 8 -10 8 -15 0 -20 -8 -5 -8 -10 0 -20 7 -9 8 -15 1 -19 -7 -5 -7 -15 -1
-31 7 -17 6 -25 -1 -25 -8 0 -8 -4 -1 -13 7 -8 7 -18 2 -27 -5 -8 -5 -21 0
-30 5 -9 5 -22 0 -30 -5 -8 -5 -21 0 -30 5 -9 5 -22 0 -30 -5 -8 -5 -21 0 -30
5 -9 5 -22 0 -30 -5 -8 -5 -21 0 -30 5 -9 5 -22 0 -30 -5 -8 -5 -21 0 -30 5
-9 5 -22 0 -30 -4 -7 -4 -23 0 -35 5 -14 4 -27 -3 -34 -6 -6 -7 -11 -1 -11 5
0 9 -11 9 -25 0 -14 -4 -25 -8 -25 -5 0 -5 -6 -1 -12 11 -18 12 -48 2 -48 -5
0 -6 -6 -1 -12 9 -16 10 -36 2 -69 -4 -15 -3 -32 1 -40 5 -7 5 -20 0 -29 -5
-9 -5 -22 0 -30 5 -8 5 -21 0 -30 -5 -9 -5 -22 0 -30 5 -8 5 -21 0 -30 -5 -9
-5 -22 0 -30 5 -8 5 -21 0 -30 -5 -9 -5 -22 0 -30 5 -8 5 -21 0 -30 -4 -8 -4
-22 0 -31 5 -8 5 -21 0 -29 -4 -7 -4 -24 1 -37 6 -15 5 -23 -2 -23 -8 0 -8 -4
0 -13 6 -8 8 -16 5 -20 -3 -3 -7 -27 -10 -54 -6 -79 -11 -107 -29 -148 -9 -22
-16 -41 -15 -43 1 -4 -32 -65 -44 -79 -43 -53 -136 -119 -186 -132 -62 -16
-133 -27 -177 -26 -29 0 -53 -4 -53 -8 0 -5 -6 -5 -12 -1 -18 11 -48 12 -48 2
0 -5 -6 -6 -12 -1 -18 11 -42 10 -50 -2 -5 -7 -11 -7 -15 0 -5 6 -42 10 -83
10 l-75 0 0 -397 -1 -398 23 -1 c26 -2 59 -6 71 -8 13 -4 486 0 527 4 97 10
145 16 175 25 18 5 37 7 41 4 5 -3 9 -1 9 4 0 5 6 9 13 10 81 5 282 98 383
177 35 27 152 143 180 178 20 24 61 92 62 101 0 5 5 12 12 16 6 4 12 14 14 22
1 9 7 22 13 29 13 18 37 71 58 134 10 28 20 57 23 65 8 24 13 43 15 65 1 11 5
22 8 25 4 3 10 21 13 40 3 19 8 46 11 60 3 14 8 43 10 64 2 21 7 56 10 77 3
20 8 72 10 114 3 42 7 80 10 86 4 5 1 9 -5 9 -6 0 -8 5 -4 12 11 18 11 81 0
96 -5 7 -5 12 1 12 10 0 9 47 -1 57 -2 3 -1 16 4 29 7 17 6 24 -3 24 -8 0 -8
3 -2 8 9 6 12 87 5 117 -1 6 -1 12 0 15 7 16 4 66 -5 72 -6 5 -5 8 3 8 9 0 10
5 3 18 -5 10 -6 24 -1 32 5 8 5 21 0 30 -5 9 -5 21 -2 27 4 7 6 29 4 50 -1 21
-2 44 -2 51 1 16 1 49 0 65 -1 6 1 27 3 45 2 17 0 37 -4 44 -4 6 -3 22 2 35 6
16 5 23 -4 23 -8 0 -8 3 -2 8 9 6 12 87 5 117 -1 6 -1 12 0 15 5 13 5 60 -1
60 -3 0 -6 7 -6 15 0 8 3 15 7 15 3 0 6 9 6 20 0 11 -4 20 -8 20 -5 0 -4 8 1
18 6 11 6 24 0 35 -6 9 -6 17 -2 17 11 0 11 41 0 58 -5 6 -4 12 0 12 5 0 9 9
9 20 0 11 -4 20 -8 20 -5 0 -4 9 2 20 8 15 8 20 -1 20 -7 0 -8 5 -3 13 11 15
11 38 1 55 -5 6 -4 12 1 12 12 0 10 43 -3 52 -6 5 -6 8 1 8 6 0 10 10 8 23 -1
12 -3 22 -4 22 -1 0 -3 10 -4 23 -2 12 0 22 4 22 3 0 6 9 6 20 0 11 -4 20 -9
20 -5 0 -5 6 1 13 6 7 7 18 2 27 -5 7 -4 24 1 38 6 16 6 29 -2 38 -6 8 -7 14
-2 14 5 0 9 9 9 20 0 11 -4 20 -8 20 -5 0 -4 9 2 20 8 15 8 20 -1 20 -7 0 -8
5 -3 13 11 15 11 38 1 55 -5 6 -4 12 1 12 12 0 10 43 -3 52 -6 5 -6 8 1 8 11
0 12 28 2 45 -3 6 -2 19 2 30 4 11 4 29 0 41 -5 11 -4 27 0 34 5 8 4 22 -1 32
-5 10 -6 18 -2 18 10 0 10 41 0 57 -4 7 -3 15 3 18 8 5 7 11 -1 21 -9 11 -9
17 0 28 8 10 9 16 1 21 -6 3 -7 12 -3 18 10 16 10 38 0 60 -4 9 -4 17 1 17 4
0 8 9 8 20 0 11 -4 20 -8 20 -5 0 -4 9 2 19 6 13 7 22 0 26 -5 3 -6 15 -1 28
5 12 5 31 1 43 -5 11 -4 27 0 34 5 8 4 22 -1 32 -5 10 -6 18 -2 18 10 0 10 41
0 57 -4 7 -3 15 3 18 8 5 7 11 -1 21 -9 11 -9 17 0 28 8 10 9 16 1 21 -6 3 -7
12 -3 18 10 16 10 38 0 60 -4 9 -4 17 1 17 4 0 8 9 8 20 0 11 -4 20 -8 20 -5
0 -4 9 2 19 7 13 7 22 0 26 -6 4 -7 13 -1 23 6 11 6 24 0 35 -7 11 -7 17 0 17
7 0 7 8 1 25 -6 15 -6 26 0 30 7 4 7 13 0 24 -6 12 -5 22 2 29 9 9 9 12 0 12
-8 0 -9 7 -2 26 7 16 7 23 0 19 -7 -4 -7 3 0 19 6 17 6 26 -1 26 -6 0 -6 7 1
20 7 13 7 20 1 20 -7 0 -7 8 -1 24 5 13 6 26 3 29 -9 9 -10 68 -1 73 5 3 4 12
-2 19 -7 9 -8 15 -1 19 7 5 7 15 1 31 -6 17 -6 25 1 25 6 0 7 6 3 12 -11 18
-12 48 -2 48 5 0 7 4 3 9 -10 17 -13 71 -3 71 5 0 4 9 -2 19 -5 11 -7 22 -2
25 4 2 6 22 4 43 -1 21 -3 44 -2 51 0 6 0 18 0 25 1 6 -1 27 -3 45 -2 18 1 36
5 38 5 3 4 12 -2 19 -7 9 -8 15 -1 19 7 5 7 15 1 31 -6 17 -6 25 1 25 6 0 7 6
3 12 -11 18 -12 48 -2 48 5 0 7 4 3 9 -10 17 -13 71 -3 71 5 0 4 9 -2 19 -5
11 -6 22 -2 25 8 5 7 36 -1 81 -4 20 -12 20 -441 21 -240 0 -438 -2 -440 -5z"/>
<path d="M10539 10835 c0 0 -3 -13 -5 -30 -2 -16 -9 -57 -15 -90 -5 -33 -12
-73 -14 -90 -2 -16 -4 -30 -5 -30 -2 0 -12 -76 -13 -102 -1 -13 -4 -23 -7 -23
-3 0 -6 -10 -7 -22 -1 -41 -11 -117 -16 -125 -3 -5 -8 -33 -11 -63 -3 -30 -11
-80 -16 -110 -5 -30 -12 -72 -16 -94 -9 -60 -12 -75 -19 -86 -3 -6 -1 -10 5
-10 7 0 8 -6 0 -19 -5 -11 -12 -39 -14 -63 -3 -24 -5 -43 -6 -43 -3 0 -9 -39
-14 -85 -2 -25 -5 -45 -6 -45 -5 0 -21 -112 -21 -142 1 -13 -3 -23 -7 -23 -4
0 -8 -17 -8 -38 -2 -40 -12 -108 -19 -132 -2 -8 -7 -37 -10 -64 -4 -28 -8 -53
-11 -57 -2 -4 -6 -27 -9 -51 -2 -24 -9 -75 -16 -113 -6 -39 -13 -81 -14 -95
-2 -14 -4 -25 -5 -25 -1 0 -4 -13 -5 -30 -6 -53 -14 -110 -15 -110 -3 0 -17
-87 -24 -150 -2 -16 -5 -30 -6 -30 -1 0 -3 -11 -5 -25 -4 -30 -13 -94 -20
-135 -13 -74 -16 -97 -20 -128 -3 -17 -7 -43 -10 -57 -2 -13 -7 -42 -10 -65
-3 -22 -8 -53 -12 -70 -3 -16 -7 -43 -9 -60 -1 -16 -3 -30 -4 -30 -3 0 -10
-40 -14 -85 -3 -25 -5 -45 -6 -45 -3 0 -10 -39 -14 -80 -3 -22 -5 -40 -6 -40
-2 0 -6 -25 -14 -80 -6 -39 -13 -85 -22 -135 -2 -14 -6 -41 -8 -60 -3 -19 -9
-53 -14 -75 -5 -22 -8 -50 -7 -62 1 -13 -1 -23 -4 -23 -3 0 -7 -17 -9 -37 -1
-20 -5 -48 -8 -62 -3 -14 -6 -33 -6 -41 0 -8 -2 -22 -5 -30 -3 -8 -6 -28 -7
-45 -1 -16 -4 -34 -7 -40 -4 -5 -6 -22 -5 -37 1 -16 -1 -28 -5 -28 -3 0 -6
-12 -7 -27 0 -16 -1 -30 -2 -33 -3 -6 -7 -32 -15 -90 -3 -25 -8 -56 -11 -70
-3 -14 -7 -36 -9 -50 -13 -93 -23 -153 -32 -195 -7 -35 -12 -75 -16 -127 -1
-21 -4 -38 -7 -38 -3 0 -7 -15 -8 -33 -1 -18 -5 -44 -7 -57 -11 -53 -16 -86
-20 -115 -4 -32 -13 -90 -22 -140 -3 -16 -7 -41 -8 -55 -2 -14 -4 -25 -5 -25
-1 0 -4 -18 -5 -40 -2 -22 -4 -40 -5 -40 -2 0 -4 -9 -5 -20 -2 -11 -5 -33 -8
-50 -3 -16 -9 -50 -12 -75 -4 -25 -9 -54 -12 -65 -4 -21 -15 -108 -16 -137 -1
-10 -4 -18 -7 -18 -5 0 -9 -34 -13 -102 -1 -16 -6 -28 -10 -28 -5 0 -6 -3 -3
-8 2 -4 0 -29 -5 -55 -5 -26 -11 -68 -15 -92 l-6 -45 401 0 c282 0 402 3 407
11 6 10 11 50 16 122 1 15 4 27 8 27 3 0 6 10 6 23 1 29 11 110 22 168 5 25 8
60 8 78 -1 17 3 31 8 31 4 0 6 6 3 14 -3 8 -3 17 0 20 3 3 7 18 8 33 4 37 14
111 21 147 4 16 8 45 9 65 2 20 4 36 5 36 1 0 4 11 5 25 2 14 7 43 10 65 3 22
8 56 10 75 2 19 5 37 6 40 1 3 2 12 3 20 1 13 68 15 534 15 294 0 537 -2 542
-5 4 -3 11 -25 14 -50 10 -66 18 -121 21 -155 2 -16 4 -30 5 -30 3 0 9 -40 12
-77 1 -21 4 -38 7 -38 4 0 7 -10 7 -22 3 -66 10 -118 14 -118 3 0 6 -12 6 -27
1 -16 4 -48 8 -73 4 -25 9 -58 11 -75 2 -16 7 -45 10 -62 3 -18 7 -48 10 -65
9 -62 18 -123 22 -148 2 -14 5 -34 6 -45 2 -20 10 -20 449 -23 421 -2 446 -1
443 15 -2 10 -4 18 -5 18 -1 0 -4 14 -6 30 -2 17 -9 60 -15 97 -6 37 -12 79
-15 93 -2 14 -6 37 -8 53 -3 15 -8 47 -11 72 -6 49 -12 85 -15 85 -1 0 -3 18
-5 40 -1 22 -4 40 -5 40 -1 0 -4 9 -5 20 -3 19 -11 73 -21 140 -2 17 -7 44
-11 60 -4 17 -7 41 -8 55 -2 14 -3 25 -5 25 -1 0 -3 16 -5 35 -2 19 -6 49 -10
65 -4 17 -8 39 -9 50 -1 11 -5 34 -9 50 -3 17 -8 46 -11 65 -11 80 -19 136
-23 155 -2 11 -6 34 -8 50 -3 17 -6 39 -9 50 -4 23 -19 121 -22 148 -1 9 -2
18 -3 20 -3 2 -6 20 -16 82 -3 22 -8 51 -10 65 -2 14 -6 41 -9 60 -3 19 -8 53
-11 75 -3 22 -8 51 -10 65 -2 14 -6 36 -9 50 -4 14 -8 45 -11 70 -3 25 -7 56
-10 70 -3 14 -8 36 -10 50 -10 64 -26 168 -31 195 -3 17 -7 44 -9 60 -2 17 -6
44 -10 60 -4 17 -8 44 -10 60 -2 17 -4 30 -5 30 -1 0 -3 11 -4 25 -2 14 -9 57
-15 97 -13 77 -19 110 -25 158 -3 17 -7 44 -11 60 -6 31 -13 78 -20 130 -2 17
-6 39 -8 50 -3 11 -8 40 -11 65 -3 25 -8 56 -10 70 -3 14 -7 41 -10 60 -3 19
-8 46 -11 60 -2 14 -7 42 -10 63 -3 20 -8 54 -11 75 -3 20 -7 48 -9 62 -2 14
-4 25 -5 25 -1 0 -4 14 -6 30 -2 17 -9 59 -15 95 -5 36 -12 79 -14 95 -2 17
-4 30 -5 30 -3 0 -11 50 -25 150 -2 17 -6 44 -9 60 -3 17 -8 46 -11 65 -3 19
-10 62 -16 95 -5 33 -11 70 -12 83 -1 12 -4 22 -7 22 -3 0 -5 12 -6 28 -1 26
-9 86 -19 147 -3 17 -7 44 -10 60 -2 17 -6 41 -9 55 -2 14 -7 45 -11 70 -3 25
-9 61 -12 80 -3 19 -7 44 -8 55 -1 11 -3 20 -5 20 -1 0 -3 14 -5 30 -2 17 -6
46 -10 65 -4 19 -7 52 -8 72 -1 21 -5 38 -9 38 -3 0 -5 8 -3 18 1 9 0 22 -4
27 -3 6 -6 21 -7 35 -1 14 -5 41 -9 60 -4 19 -8 44 -10 55 -1 11 -6 47 -11 80
-8 64 -10 74 -14 78 -1 1 -3 11 -5 22 -1 11 -6 43 -10 70 -4 28 -8 61 -10 75
-2 14 -4 27 -6 30 -4 9 -7 25 -8 51 l-1 25 -645 0 c-355 0 -645 0 -646 -1z
m615 -1147 c-3 -4 -1 -8 5 -8 5 0 10 -8 9 -17 0 -17 4 -45 17 -122 4 -18 7
-51 8 -72 1 -21 4 -39 7 -39 3 0 6 -8 6 -17 1 -10 4 -40 8 -68 4 -27 9 -61 11
-75 4 -23 9 -59 19 -120 2 -14 7 -46 10 -70 3 -25 9 -58 12 -75 3 -16 7 -43 9
-60 4 -32 12 -89 21 -145 3 -19 8 -48 10 -65 4 -36 11 -81 18 -114 3 -13 8
-47 11 -75 2 -28 7 -62 11 -76 3 -14 7 -41 8 -60 2 -19 5 -35 6 -35 1 0 4 -13
5 -30 3 -33 10 -78 20 -140 4 -22 8 -53 10 -70 1 -16 5 -37 7 -45 11 -32 28
-162 23 -171 -4 -5 -2 -9 2 -9 5 0 8 -12 7 -27 -1 -16 1 -32 4 -38 3 -5 7 -21
8 -35 2 -14 6 -43 9 -65 4 -22 8 -59 10 -82 2 -23 6 -46 9 -51 4 -7 10 -42 21
-132 8 -63 17 -127 21 -150 3 -14 7 -36 9 -50 2 -14 4 -25 5 -25 1 0 3 -13 4
-30 2 -16 6 -52 11 -80 4 -27 8 -57 8 -65 0 -8 4 -20 9 -26 5 -8 4 -17 -5 -25
-11 -11 -91 -14 -423 -14 l-409 0 2 40 c2 39 5 59 17 140 4 22 9 58 12 80 4
22 8 47 9 55 2 8 6 35 9 60 3 25 8 56 11 70 2 14 7 45 10 70 3 25 8 59 11 75
3 17 6 40 7 53 0 12 3 22 7 22 3 0 6 17 6 38 2 38 10 101 17 137 3 11 8 45 11
75 7 57 13 95 16 95 1 0 3 14 5 30 4 40 14 113 20 150 2 17 7 48 10 70 3 22 8
54 11 70 5 33 7 46 30 205 8 57 9 65 15 75 3 6 5 25 4 43 -1 17 1 32 4 32 3 0
6 10 7 23 0 12 4 49 9 82 4 33 9 71 11 85 2 14 5 36 8 50 3 13 8 42 11 65 3
22 8 58 12 80 3 22 6 49 8 60 1 11 3 20 5 20 1 0 3 11 5 25 2 22 5 48 21 163
2 15 6 39 8 55 3 15 7 45 10 67 3 22 8 51 11 65 4 24 12 78 20 143 19 151 27
167 37 78 4 -35 5 -68 2 -73z"/>
<path d="M13065 9533 c2 -703 5 -1290 8 -1304 3 -14 8 -88 11 -165 4 -76 9
-168 11 -204 2 -36 7 -114 10 -175 3 -60 8 -139 10 -175 5 -81 14 -236 20
-360 3 -52 7 -129 10 -170 2 -41 7 -129 11 -195 3 -66 7 -149 9 -185 2 -36 5
-91 6 -122 l2 -58 334 0 333 0 1 58 c1 31 2 73 4 92 2 33 12 200 20 360 3 41
7 116 10 165 2 50 7 135 10 190 3 55 8 132 10 170 3 39 7 126 10 195 4 69 8
154 10 190 2 36 7 115 10 175 4 61 9 133 12 160 3 28 8 632 10 1343 l4 1292
-444 0 -445 0 3 -1277z"/>
<path d="M12247 9453 c-3 -5 1 -14 9 -20 8 -8 15 -9 19 -3 3 6 3 10 -2 10 -4
0 -1 5 7 10 12 8 11 10 -7 10 -12 0 -24 -3 -26 -7z"/>
<path d="M12523 9082 c-3 -9 -8 -21 -11 -26 -3 -5 0 -6 6 -2 7 4 12 2 12 -5 0
-8 4 -8 15 1 19 16 19 36 0 44 -10 3 -18 -1 -22 -12z"/>
<path d="M13080 5985 c-1 -54 -1 -730 0 -777 l0 -38 428 0 427 0 0 425 c0 371
-2 425 -15 426 -8 1 -201 2 -427 3 l-413 1 0 -40z"/>
</g>
</svg>
